Coordinates
version=1
nRows=16
nColumns=42
inDegrees=yes

Units are S.I. units (second, meters, Newtons, ...)
If the header above contains a line with 'inDegrees', this indicates whether rotational values are in degrees (yes) or radians (no).

endheader
time	pelvis_tilt	pelvis_list	pelvis_rotation	pelvis_tx	pelvis_ty	pelvis_tz	hip_flexion_r	hip_adduction_r	hip_rotation_r	knee_angle_r	knee_adduction_r	knee_angle_r_beta	ankle_angle_r	subtalar_angle_r	mtp_angle_r	hip_flexion_l	hip_adduction_l	hip_rotation_l	knee_angle_l	knee_adduction_l	knee_angle_l_beta	ankle_angle_l	subtalar_angle_l	mtp_angle_l	lumbar_extension	lumbar_bending	lumbar_rotation	arm_flex_r	arm_add_r	arm_rot_r	elbow_flex_r	pro_sup_r	wrist_flex_r	wrist_dev_r	arm_flex_l	arm_add_l	arm_rot_l	elbow_flex_l	pro_sup_l	wrist_flex_l	wrist_dev_l
      2.50000000	      1.25168577	     -8.43802728	     -3.62739481	     -1.22226045	      0.83096167	      0.33922692	      5.83553480	      8.35717302	    -25.13672811	     20.44045056	     -2.21828439	      0.35675316	     19.07975280	     28.91470564	     -7.56026984	     17.46149267	    -21.91192128	    -25.14518999	     56.02758965	    -11.68949521	      0.97786591	     19.45687316	     15.47481789	     -7.56026984	    -27.09025077	      9.29646363	      2.70325188	     -7.08105828	     -2.72657831	    -12.10706017	    104.31814210	     90.00000001	      0.00000000	      0.00000000	      3.09485981	     -7.62710345	    -19.02573496	     51.93113728	     90.00000001	      0.00000000	      0.00000000
      2.51000000	      1.02967665	     -8.51955415	     -3.61569921	     -1.22121302	      0.83066786	      0.33884696	      5.98132345	      8.39260465	    -25.21271462	     20.44594796	     -2.14923227	      0.35684911	     19.10492661	     28.84250815	     -7.55969049	     18.52352140	    -22.18416646	    -25.64976716	     54.91727755	    -11.45116519	      0.95848731	     19.76795751	     15.61025844	     -7.55969049	    -27.13918580	      9.37722801	      2.63470124	     -7.00120228	     -2.63723610	    -11.99701792	    104.41393847	     90.00000001	      0.00000000	      0.00000000	      3.27087088	     -7.69139703	    -18.97464564	     52.03600206	     90.00000001	      0.00000000	      0.00000000
      2.52000000	      0.62626939	     -8.50540796	     -3.78730216	     -1.22005463	      0.82994766	      0.33848588	      6.42827386	      8.31496925	    -25.32276954	     20.68163512	     -2.21067397	      0.36096263	     19.24160157	     29.28980818	     -7.55781013	     19.76784329	    -22.32889649	    -27.42494291	     53.62174502	    -12.34375093	      0.93587600	     20.79426275	     18.43489915	     -7.55781013	    -26.95113565	      9.30945734	      2.63025204	     -6.97260974	     -2.61616155	    -11.80269703	    104.43875024	     90.00000001	      0.00000000	      0.00000000	      3.40058382	     -7.76289493	    -18.87506839	     51.98001992	     90.00000001	      0.00000000	      0.00000000
      2.53000000	      0.47394589	     -8.53264338	     -3.82257799	     -1.21870303	      0.82968708	      0.33786784	      6.49295619	      8.28634809	    -25.43026355	     20.69498992	     -2.24326053	      0.36119571	     19.39345479	     29.43020365	     -7.55557851	     20.62006781	    -22.43388360	    -28.48115397	     52.16645879	    -12.52918174	      0.91047646	     21.22939889	     20.61182276	     -7.55557851	    -27.01846819	      9.31454703	      2.54584847	     -6.98144995	     -2.50912304	    -11.67987144	    104.56306825	     90.00000001	      0.00000000	      0.00000000	      3.52633396	     -7.77530099	    -18.80809543	     52.00789830	     90.00000001	      0.00000000	      0.00000000
      2.54000000	      0.21965782	     -8.67104443	     -3.84537002	     -1.21760690	      0.82926075	      0.33733591	      6.66909523	      8.38838649	    -25.42158218	     20.70142309	     -2.16583729	      0.36130799	     19.42086429	     29.30344842	     -7.55500175	     21.62955650	    -22.60807837	    -28.67030678	     50.91066969	    -12.12484217	      0.88855881	     21.35230576	     20.84875969	     -7.55500175	    -27.03053458	      9.39769094	      2.48017464	     -6.94845813	     -2.48525957	    -11.59900646	    104.67222572	     90.00000001	      0.00000000	      0.00000000	      3.66533596	     -7.88220908	    -18.77767946	     52.08527831	     90.00000001	      0.00000000	      0.00000000
      2.55000000	     -0.21740026	     -8.69690754	     -3.84413674	     -1.21647437	      0.82854902	      0.33654691	      7.07793401	      8.45558875	    -25.35101096	     20.66120084	     -2.30994437	      0.36060598	     19.54225956	     29.33776079	     -7.55410740	     22.84751477	    -22.52730737	    -29.12045634	     49.51057921	    -12.12734388	      0.86412262	     21.55869563	     22.72299816	     -7.55410740	    -26.77242624	      9.43904009	      2.37536294	     -6.96104962	     -2.46289479	    -11.45184496	    104.74642284	     90.00000001	      0.00000000	      0.00000000	      3.83686114	     -7.95384608	    -18.72776167	     51.95324954	     90.00000001	      0.00000000	      0.00000000
      2.56000000	     -0.45996905	     -8.81988917	     -3.97152681	     -1.21485465	      0.82795643	      0.33578492	      7.28437859	      8.44487010	    -25.39918913	     20.92362323	     -2.21325601	      0.36518612	     19.73332188	     29.36589441	     -7.55226654	     23.70313094	    -22.73275302	    -30.37898049	     48.12513649	    -12.41764937	      0.83994208	     21.85387233	     26.31124027	     -7.55226654	    -26.67653475	      9.50691255	      2.34788055	     -7.05835884	     -2.46496802	    -11.40932905	    104.75363231	     90.00000001	      0.00000000	      0.00000000	      3.87948852	     -7.98972482	    -18.71123694	     51.85487429	     90.00000001	      0.00000000	      0.00000000
      2.57000000	     -0.72752183	     -8.92170981	     -4.03610837	     -1.21353171	      0.82751758	      0.33493154	      7.47038692	      8.56281808	    -25.23733020	     20.87064606	     -2.28998607	      0.36426149	     19.79770110	     29.27148963	     -7.55162166	     24.52784470	    -22.67713822	    -30.33988934	     46.79699239	    -11.95174952	      0.81676160	     21.80637530	     26.85023086	     -7.55162166	    -26.60141458	      9.56232009	      2.30525448	     -7.10534495	     -2.45736945	    -11.33615526	    104.85364176	     90.00000001	      0.00000000	      0.00000000	      3.97407205	     -8.02775279	    -18.67245122	     51.87655062	     90.00000001	      0.00000000	      0.00000000
      2.58000000	     -0.99467309	     -9.06215511	     -4.10908364	     -1.21199875	      0.82704109	      0.33396409	      7.63870888	      8.66972319	    -25.11610306	     20.87073721	     -2.28653761	      0.36426308	     19.88766077	     29.19439732	     -7.55114010	     25.30540460	    -22.67502845	    -30.35819739	     45.60323876	    -11.51819022	      0.79592667	     21.70267174	     27.57756404	     -7.55114010	    -26.49456832	      9.66675941	      2.23057536	     -7.19655020	     -2.46584270	    -11.31050836	    104.87924073	     90.00000001	      0.00000000	      0.00000000	      4.02628532	     -8.07298045	    -18.64844634	     51.81989671	     90.00000001	      0.00000000	      0.00000000
      2.59000000	     -1.27512082	     -9.11478932	     -4.24337466	     -1.21026197	      0.82647339	      0.33292405	      7.84428754	      8.64844337	    -24.97389585	     20.97391667	     -2.26892283	      0.36606390	     20.14155975	     29.13922960	     -7.54978764	     26.03516159	    -22.61736462	    -31.10351438	     44.35758386	    -11.63411117	      0.77418589	     21.34490497	     30.89569935	     -7.54978764	    -26.28071994	      9.66945038	      2.18089783	     -7.26813585	     -2.46088236	    -11.32925181	    104.78972436	     90.00000001	      0.00000000	      0.00000000	      4.10770351	     -8.09185923	    -18.64539721	     51.47514485	     90.00000001	      0.00000000	      0.00000000
      2.60000000	     -1.44997528	     -9.25760884	     -4.39270087	     -1.20841971	      0.82609379	      0.33196228	      7.87335129	      8.74950175	    -24.88189007	     20.95321804	     -2.28787394	      0.36570264	     20.19732398	     29.03846603	     -7.54941622	     26.55505788	    -22.63041156	    -31.07783666	     43.43790734	    -11.18722548	      0.75813450	     21.31281775	     31.01601728	     -7.54941622	    -26.21945074	      9.71967587	      2.16864947	     -7.35027430	     -2.47194421	    -11.33104604	    104.84959967	     90.00000001	      0.00000000	      0.00000000	      4.05700954	     -8.13495539	    -18.64117282	     51.48218157	     90.00000001	      0.00000000	      0.00000000
      2.61000000	     -1.66268676	     -9.35225760	     -4.56292484	     -1.20665476	      0.82578872	      0.33083857	      7.97199082	      8.84581366	    -24.59628928	     20.92725981	     -2.37830211	      0.36524959	     20.30201881	     28.99264588	     -7.54897456	     27.00662442	    -22.48192491	    -30.87833097	     42.45691418	    -10.76895717	      0.74101294	     21.07795848	     31.52217210	     -7.54897456	    -26.12198670	      9.72540269	      2.16177549	     -7.43594336	     -2.50973847	    -11.36270661	    104.79469011	     90.00000001	      0.00000000	      0.00000000	      4.07698231	     -8.15820289	    -18.62119462	     51.40319933	     90.00000001	      0.00000000	      0.00000000
      2.62000000	     -1.72176952	     -9.32629635	     -4.77453610	     -1.20460831	      0.82569120	      0.32962189	      7.86650690	      8.74806157	    -24.18632814	     20.93026451	     -2.34800497	      0.36530203	     20.54289316	     28.81587538	     -7.54744924	     27.21165913	    -22.27501423	    -31.28497576	     41.61260744	    -10.71675982	      0.72627701	     20.40089372	     33.26603080	     -7.54744924	    -26.10694819	      9.57969159	      2.17565027	     -7.47506304	     -2.50121104	    -11.49489129	    104.61638779	     90.00000001	      0.00000000	      0.00000000	      4.18891073	     -8.20597026	    -18.62805051	     51.03545179	     90.00000001	      0.00000000	      0.00000000
      2.63000000	     -1.83773762	     -9.44340209	     -4.98902889	     -1.20240887	      0.82547536	      0.32840155	      7.81337472	      8.80887082	    -24.03077388	     20.92891852	     -2.39952592	      0.36527854	     20.58202918	     28.75366231	     -7.54711700	     27.44631508	    -22.20522257	    -31.15074409	     41.07998603	    -10.41858953	      0.71698101	     20.33923197	     33.25578194	     -7.54711700	    -26.02655256	      9.59451884	      2.17321227	     -7.55178129	     -2.52864826	    -11.53738038	    104.57788999	     90.00000001	      0.00000000	      0.00000000	      4.08533547	     -8.22106441	    -18.62499210	     50.99532175	     90.00000001	      0.00000000	      0.00000000
      2.64000000	     -1.92644563	     -9.47648766	     -5.24499532	     -1.20029744	      0.82545577	      0.32714450	      7.73611326	      8.83822612	    -23.64749111	     20.86374582	     -2.50857093	      0.36414106	     20.70687063	     28.73460495	     -7.54663801	     27.53387960	    -21.98112816	    -30.84559765	     40.54173575	    -10.13266087	      0.70758677	     20.08423761	     33.39604381	     -7.54663801	    -25.97869499	      9.48865793	      2.21886717	     -7.58401715	     -2.52784399	    -11.62509357	    104.41687238	     90.00000001	      0.00000000	      0.00000000	      4.08282726	     -8.24992198	    -18.62255896	     50.83581999	     90.00000001	      0.00000000	      0.00000000
      2.65000000	     -1.92726345	     -9.48348737	     -5.54181945	     -1.19790502	      0.82558594	      0.32582318	      7.51424385	      8.78982341	    -23.23768098	     20.78908947	     -2.54279200	      0.36283806	     20.85350306	     28.71951467	     -7.54609627	     27.41377192	    -21.76155990	    -30.63865186	     40.13039399	     -9.89673943	      0.70040751	     19.75213059	     33.49677006	     -7.54609627	    -25.96914904	      9.34312933	      2.26729766	     -7.60497278	     -2.50857115	    -11.76526256	    104.22585704	     90.00000001	      0.00000000	      0.00000000	      4.06262595	     -8.28037412	    -18.63440759	     50.57154208	     90.00000001	      0.00000000	      0.00000000
